<?xml version="1.0" standalone="no"?>
<!DOCTYPE svg PUBLIC "-//W3C//DTD SVG 20010904//EN"
 "http://www.w3.org/TR/2001/REC-SVG-20010904/DTD/svg10.dtd">
<svg version="1.0" xmlns="http://www.w3.org/2000/svg"
 width="216.000000pt" height="234.000000pt" viewBox="0 0 216.000000 234.000000"
 preserveAspectRatio="xMidYMid meet">
<metadata>
Created by potrace 1.16, written by Peter Selinger 2001-2019
</metadata>
<g transform="translate(0.000000,234.000000) scale(0.100000,-0.100000)"
fill="#000000" stroke="none">
<path d="M935 2270 c-33 -6 -67 -13 -75 -16 -8 -4 -23 -9 -34 -11 -36 -7 -184
-81 -247 -124 -191 -128 -348 -355 -433 -628 -45 -142 -52 -472 -15 -636 84
-371 354 -691 674 -797 62 -20 88 -23 230 -22 182 1 245 13 359 71 107 54 205
125 289 211 235 240 342 539 323 903 -9 167 -27 274 -66 384 -112 318 -355
557 -660 650 -66 20 -259 28 -345 15z m330 -56 c334 -89 604 -410 680 -809 38
-199 25 -425 -36 -620 -66 -210 -158 -352 -332 -510 -55 -50 -172 -111 -277
-145 -93 -30 -270 -38 -373 -16 -94 19 -224 78 -312 140 -269 193 -441 589
-422 976 12 243 90 472 217 641 141 187 348 322 560 363 47 9 235 -3 295 -20z"/>
<path d="M1060 2065 c0 -8 23 -54 50 -102 57 -100 69 -133 77 -219 9 -94 -11
-157 -63 -210 -25 -24 -54 -44 -65 -44 -29 0 -74 34 -99 75 -18 30 -48 152
-50 205 0 13 -1 13 -10 0 -8 -13 -10 -12 -10 3 0 10 -8 17 -21 17 -11 0 -29 5
-40 10 -14 8 -25 6 -44 -6 -14 -9 -22 -20 -19 -25 3 -5 -1 -6 -8 -4 -8 3 -42
-22 -77 -57 -153 -151 -273 -380 -311 -596 -20 -108 -9 -269 25 -367 47 -140
129 -258 237 -341 113 -88 328 -183 328 -146 0 4 -16 14 -35 21 -19 7 -35 17
-35 22 0 6 -5 7 -12 3 -6 -4 -8 -3 -5 4 4 5 16 8 26 5 10 -3 22 0 25 6 4 6 15
11 25 11 10 0 18 6 19 13 1 6 6 38 11 71 5 32 13 140 17 240 8 211 1 238 -64
269 -80 39 -142 86 -142 110 0 46 37 132 74 171 118 124 223 144 313 60 36
-34 36 -35 30 -98 l-6 -63 41 -6 c44 -6 72 -26 60 -42 -23 -33 -77 -65 -108
-65 -48 0 -105 26 -111 50 -3 11 -10 20 -15 20 -5 0 -7 3 -4 8 2 4 -2 16 -10
27 -13 18 -14 17 -15 -11 -1 -28 -1 -28 -8 -4 -4 14 -13 26 -21 28 -16 3 -45
-36 -35 -46 3 -4 10 0 14 7 6 9 11 10 15 2 4 -6 0 -14 -8 -17 -9 -3 -13 -11
-10 -16 4 -6 1 -9 -7 -6 -31 10 -20 82 21 132 15 19 14 19 -13 1 -35 -23 -57
-64 -57 -108 0 -39 14 -54 85 -90 90 -45 100 -70 116 -271 16 -223 37 -425 44
-436 16 -26 125 9 235 77 48 29 64 45 62 59 -2 15 -1 16 6 5 10 -14 36 -6 27
9 -3 4 11 15 30 24 19 9 39 25 45 36 5 10 16 24 23 32 23 24 59 78 51 78 -4 0
2 10 13 22 29 33 58 94 74 158 7 30 17 61 23 69 15 19 14 344 -1 401 -7 25
-20 77 -29 115 -32 137 -98 288 -183 420 -83 127 -253 282 -321 291 -8 1 -23
5 -32 9 -12 5 -20 2 -24 -9 -3 -9 -18 -17 -33 -17 -17 -1 -20 -3 -8 -6 9 -2
15 -9 12 -14 -3 -5 -1 -19 5 -31 11 -22 11 -22 -4 -3 -9 11 -26 33 -38 49 -13
17 -22 33 -20 38 1 4 -5 8 -13 8 -8 0 -15 -7 -15 -15z m220 -133 c0 -4 20 -16
44 -26 30 -12 43 -23 39 -32 -3 -9 2 -14 14 -14 11 0 25 -11 31 -25 6 -14 16
-25 21 -25 5 0 24 -24 42 -52 19 -29 37 -54 41 -56 5 -2 8 -10 8 -19 0 -8 8
-27 19 -41 10 -15 24 -44 32 -64 7 -21 17 -38 21 -38 4 0 8 -8 8 -18 0 -10 4
-22 9 -28 5 -5 22 -54 39 -109 26 -87 37 -150 58 -318 9 -79 -16 -258 -48
-337 -17 -41 -37 -82 -44 -91 -8 -8 -14 -24 -14 -33 0 -10 -9 -20 -20 -23 -11
-3 -20 -11 -20 -19 0 -7 -9 -18 -20 -24 -11 -6 -20 -17 -20 -25 0 -8 -7 -15
-15 -15 -8 0 -19 -9 -25 -20 -6 -11 -17 -20 -25 -20 -8 0 -15 -7 -15 -15 0 -8
-16 -19 -40 -25 -22 -6 -40 -15 -40 -20 0 -20 -70 -10 -92 12 -19 19 -22 38
-30 172 -5 83 -16 171 -24 195 -8 25 -14 61 -14 82 0 31 7 43 40 72 28 24 38
39 34 51 -5 12 -2 15 10 10 9 -3 16 -1 16 4 0 6 10 12 22 14 12 2 23 9 26 16
3 11 0 12 -17 3 -14 -8 -21 -8 -21 -1 0 6 6 13 14 16 9 3 12 12 9 21 -5 12 -3
14 6 8 10 -6 11 -3 2 13 -6 11 -16 23 -23 25 -9 4 -8 6 3 6 14 1 14 5 0 51
-11 35 -21 50 -34 50 -10 0 -15 5 -12 10 11 18 -6 72 -20 66 -7 -2 -15 4 -18
15 -3 11 -19 24 -35 30 -17 6 -33 17 -36 25 -3 8 -15 14 -26 14 -12 0 -19 4
-16 9 4 5 -12 12 -34 16 -54 9 -58 21 -9 29 31 5 40 10 35 22 -3 8 -2 12 4 9
5 -3 27 13 49 35 22 22 44 40 49 40 15 0 42 81 42 125 0 27 3 35 9 26 9 -14 8
3 -8 149 -7 71 -4 100 10 100 5 0 9 -4 9 -8z m-434 -275 c17 -23 35 -53 39
-66 14 -46 77 -126 89 -114 11 12 35 -32 36 -64 0 -27 -4 -33 -21 -33 -11 0
-17 -4 -14 -10 3 -5 1 -10 -4 -10 -23 0 -91 -35 -91 -47 0 -7 -5 -13 -10 -13
-17 0 -70 -64 -65 -78 3 -7 0 -10 -5 -7 -6 4 -20 -14 -31 -40 -17 -39 -20 -58
-14 -120 8 -79 16 -93 92 -155 62 -51 73 -85 73 -238 0 -156 -8 -242 -23 -242
-5 0 -15 -6 -21 -14 -15 -19 -101 -6 -119 17 -6 10 -28 26 -47 36 -19 11 -34
24 -33 30 2 6 -6 11 -17 11 -13 0 -20 7 -20 20 0 11 -7 20 -15 20 -8 0 -15 4
-15 10 0 5 -11 20 -25 34 -14 14 -25 29 -25 34 0 5 -6 15 -14 21 -7 6 -19 31
-26 55 -7 25 -21 54 -31 65 -34 36 -46 280 -20 396 30 131 101 289 156 346 8
9 15 19 15 23 0 5 14 26 31 47 17 21 28 43 25 48 -3 5 9 16 27 25 17 9 43 25
57 36 14 11 27 19 30 19 3 0 19 -19 36 -42z"/>
</g>
</svg>
